<svg xmlns="http://www.w3.org/2000/svg" viewBox="0 0 128 128">
  <rect width="128" height="128" rx="30" fill="#F3D24D"/>
  <path d="M18 74C33 30 68 18 94 42c15 14 24 36 46 22" fill="none" stroke="#1B3F9D" stroke-width="16" stroke-linecap="round"/>
  <path d="M23 85c15-32 47-43 73-18 17 16 28 28 48 10" fill="none" stroke="#E92725" stroke-width="13" stroke-linecap="round"/>
  <path d="M23 67c39 6 62 23 87 50-39 0-69-11-101-37 25 2 44 8 60 15-20-18-43-30-69-36 28 2 51 9 69 21-17-21-29-39-35-55 25 19 42 40 57 63l-25 21C50 87 33 75 23 67Z" fill="#111"/>
  <path d="M89 101c11-12 24-13 33-4-14 5-28 6-43 2 11 10 23 16 37 19-16 5-32 1-50-9 11 0 21-3 23-8Z" fill="#111"/>
</svg>
