<svg xmlns="http://www.w3.org/2000/svg" viewBox="0 0 640 520" role="img" aria-labelledby="title desc">
  <title id="title">Isologo Somos Mision Colombia</title>
  <desc id="desc">Condor negro con cinta tricolor colombiana formando un simbolo de mision.</desc>
  <defs>
    <linearGradient id="goldRibbon" x1="82" y1="124" x2="550" y2="454" gradientUnits="userSpaceOnUse">
      <stop offset="0" stop-color="#FFE86B"/>
      <stop offset="0.42" stop-color="#F7D326"/>
      <stop offset="1" stop-color="#B89612"/>
    </linearGradient>
    <linearGradient id="blueRibbon" x1="128" y1="178" x2="566" y2="438" gradientUnits="userSpaceOnUse">
      <stop offset="0" stop-color="#244AA8"/>
      <stop offset="0.5" stop-color="#123B98"/>
      <stop offset="1" stop-color="#092165"/>
    </linearGradient>
    <linearGradient id="redRibbon" x1="152" y1="222" x2="600" y2="444" gradientUnits="userSpaceOnUse">
      <stop offset="0" stop-color="#F13A31"/>
      <stop offset="0.55" stop-color="#E42224"/>
      <stop offset="1" stop-color="#8B1118"/>
    </linearGradient>
    <filter id="softShadow" x="-20%" y="-20%" width="140%" height="150%">
      <feDropShadow dx="0" dy="18" stdDeviation="18" flood-color="#000" flood-opacity="0.20"/>
    </filter>
  </defs>

  <g fill="none" stroke-linecap="round" stroke-linejoin="round" filter="url(#softShadow)">
    <path d="M78 284C122 120 260 54 366 116c50 29 83 76 124 116 54 53 96 20 128-30" stroke="url(#goldRibbon)" stroke-width="58"/>
    <path d="M116 304c40-126 150-180 248-132 58 29 88 84 136 116 46 31 82 6 110-28" stroke="url(#blueRibbon)" stroke-width="34"/>
    <path d="M142 326c34-82 112-124 198-94 70 25 96 96 154 108 42 9 72-16 94-46" stroke="url(#redRibbon)" stroke-width="30"/>
    <path d="M474 382c54 8 94 42 124 84" stroke="url(#goldRibbon)" stroke-width="46"/>
    <path d="M486 402c42 8 73 32 96 64" stroke="url(#blueRibbon)" stroke-width="28"/>
    <path d="M501 421c30 8 52 25 70 48" stroke="url(#redRibbon)" stroke-width="22"/>
  </g>

  <g fill="#0C0C0E">
    <path d="M92 234c80 10 151 48 206 105 35 36 69 70 116 85 46 14 89 10 134 4 20-3 38-1 53 12-42 12-89 21-144 17-78-5-135-38-190-91C206 307 142 266 92 234Z"/>
    <path d="M86 210c54 6 110 20 162 44-44-41-78-76-101-117 46 32 91 70 135 116-25-49-41-90-49-122 40 37 73 80 102 129 7 12 19 22 31 30 43 31 83 71 121 116l-34 27c-36-42-76-80-118-112-15-11-28-25-39-41-18-26-41-47-70-65 10 23 25 51 43 82l-24 19c-45-41-94-76-147-105 22 25 48 51 79 79l-18 22c-54-23-107-37-159-43l86-59Z"/>
    <path d="M433 423c18-21 38-31 61-25 19 5 28 20 30 38-28 8-56 8-84 1-8-2-11-8-7-14Z"/>
    <path d="M510 423c36 9 74 8 108-3-21 24-51 39-92 41 2-12 0-23-16-38Z"/>
    <path d="M514 449c36 30 72 49 111 56-43 12-88 4-139-25 14-9 22-19 28-31Z"/>
    <path d="M230 361c-54 8-105 25-153 52 29-51 81-82 155-96l-2 44Z"/>
  </g>
  <path d="M313 305c42 36 83 71 130 96" fill="none" stroke="#3E3E43" stroke-width="9" stroke-linecap="round"/>
</svg>
