<?xml version="1.0" encoding="UTF-8"?>
<svg id="Grupo_11" xmlns="http://www.w3.org/2000/svg" version="1.1" xmlns:xlink="http://www.w3.org/1999/xlink" viewBox="0 0 134.7 154.9">
  <!-- Generator: Adobe Illustrator 30.5.1, SVG Export Plug-In . SVG Version: 2.1.4 Build 3)  -->
  <defs>
    <style>
      .st0 {
        fill: url(#Agua_10);
      }

      .st1 {
        clip-path: url(#clippath);
      }

      .st2 {
        fill: url(#Agua_101);
      }
    </style>
    <linearGradient id="Agua_10" data-name="Agua 10" x1="0" y1="77.4" x2="134.7" y2="77.4" gradientUnits="userSpaceOnUse">
      <stop offset="0" stop-color="#5785b2"/>
      <stop offset=".1" stop-color="#4d81af"/>
      <stop offset=".3" stop-color="#3476a8"/>
      <stop offset=".5" stop-color="#0b669d"/>
      <stop offset=".6" stop-color="#00629a"/>
      <stop offset="1" stop-color="#004c88"/>
    </linearGradient>
    <clipPath id="clippath">
      <path class="st0" d="M10.5,147h1.1c.9,0,1.3.5,1.3,1.4v.8c0,1.1-.5,1.4-1.5,1.4h-.9v-3.6h0ZM9.9,146.5v8.3h.5v-3.7h.9c.9,0,1.5.3,1.5,1.4v1.3c0,.3,0,.7.2,1h.5c-.1-.3-.2-.7-.2-1v-1.3c.1-.8-.4-1.5-1.2-1.7.8-.2,1.2-.7,1.2-1.7v-.7c0-1.1-.5-1.9-1.7-1.9h-1.7,0ZM20.5,146.5v8.3h3.3v-.5h-2.8v-3.5h2.3v-.5h-2.3v-3.4h2.8v-.5h-3.3ZM31.1,147h1.3c.9,0,1.3.6,1.3,1.5v4.2c0,.9-.4,1.5-1.3,1.5h-1.3v-7.3ZM30.5,146.5v8.3h1.8c1.3,0,1.8-.9,1.8-2.1v-4.2c0-1.2-.5-2.1-1.8-2.1h-1.8ZM52,146.5v7l-2.5-7h-.7v8.3h.5v-7.4l2.6,7.4h.6v-8.3h-.5,0ZM80.8,154.8h.5v-8.3h-.5v8.3ZM101.8,146.5v7l-2.5-7h-.7v8.3h.5v-7.4l2.6,7.4h.6v-8.3h-.5,0ZM120.3,146.5v8.3h3.2v-.5h-2.6v-7.8h-.5ZM61.4,147.1l1.2,5.4h-2.4l1.2-5.4h0ZM61,146.5l-1.8,8.3h.5l.4-1.8h2.6l.4,1.8h.5l-1.9-8.3h-.8,0ZM111.3,147.1l1.2,5.4h-2.4l1.2-5.4ZM110.9,146.5l-1.8,8.3h.5l.4-1.8h2.5l.4,1.8h.5l-1.9-8.3h-.8.1ZM70.4,148.5v4.2c0,1.2.5,2.1,1.8,2.1s1.8-.9,1.8-2.1v-.9h-.5v1c0,.9-.3,1.5-1.3,1.5s-1.3-.7-1.3-1.5v-4.3c0-.9.3-1.5,1.3-1.5s1.3.7,1.3,1.5v.7h.5v-.7c0-1.2-.5-2.1-1.8-2.1s-1.8.9-1.8,2.1M88.7,152.8v-4.3c0-.9.3-1.5,1.3-1.5s1.3.7,1.3,1.5v4.3c0,.9-.3,1.5-1.3,1.5s-1.3-.7-1.3-1.5M88.1,148.5v4.2c0,1.2.5,2.1,1.8,2.1s1.8-.9,1.8-2.1v-4.2c0-1.2-.5-2.1-1.8-2.1s-1.8.9-1.8,2.1M10.7,107.1h.1l2.9,20.1h-5.8l2.8-20.1h0ZM6.6,99.9L0,140.7h6l1.1-8h7.3c0-.1,1.1,8,1.1,8h6.4l-6.6-40.8H6.6ZM42.5,99.9l-4.1,29.2h-.1l-4.1-29.2h-9.1v40.8h5.6v-30.9h.1l4.6,30.9h5.4l4.6-30.9h.1v30.9h6v-40.8h-9.1,0ZM56.3,140.7h6.4v-40.8h-6.4v40.8ZM67.1,109.6v21.4c0,6.5,3.3,10.3,9.5,10.3s9.5-3.8,9.5-10.3v-13.3h-9.3v5.8h3.2v8c0,2.9-1.3,4-3.3,4s-3.3-1.1-3.3-4v-22.3c0-2.9,1.3-4,3.3-4s3.3,1.1,3.3,4v3.9h6v-3.5c0-6.5-3.3-10.3-9.5-10.3s-9.5,3.8-9.5,10.3M96.3,131.5v-22.3c0-2.9,1.3-4,3.3-4s3.3,1.1,3.3,4v22.3c0,2.9-1.3,4-3.3,4s-3.3-1.1-3.3-4M89.8,109.6v21.4c0,6.5,3.4,10.3,9.7,10.3s9.7-3.8,9.7-10.3v-21.4c0-6.5-3.4-10.3-9.7-10.3s-9.7,3.8-9.7,10.3M112.6,109.5c0,4.6,1.7,8,7.1,12.7,4.2,3.7,5.5,5.8,5.5,9.2s-1.3,4.1-3.3,4.1-3.3-1.1-3.3-4v-2.8h-6v2.3c0,6.5,3.2,10.3,9.5,10.3s9.7-3.8,9.7-10.4-1.7-8.3-7-13c-4.2-3.7-5.5-5.8-5.5-8.8s1.1-3.9,3.2-3.9,3.2,1.1,3.2,4v2.1h6v-1.7c0-6.5-3.1-10.3-9.3-10.3s-9.5,3.8-9.5,10.1M2,23.9L0,61.6h10.1v-.6c0-4.8,2.1-6.6,5.5-6.6s5.5,1.8,5.5,6.6v15.2c0,4.8-2.1,6.6-5.5,6.6s-5.5-1.7-5.5-6.6v-6.1H0v5.3c0,10.8,5.4,17,15.8,17s15.8-6.2,15.8-17v-15.3c0-9.9-4-15.4-11.8-15.4s-7.2,1.7-9.2,4.9h-.2l.9-16.2h18.6v-9.7H1.9h0ZM44.4,76.2v-36.9c0-4.8,2.1-6.6,5.5-6.6s5.5,1.8,5.5,6.6v36.9c0,4.8-2.1,6.6-5.5,6.6s-5.5-1.8-5.5-6.6M33.8,40v35.6c0,10.8,5.7,17,16.2,17s16.2-6.2,16.2-17v-35.6c0-10.8-5.7-17-16.2-17s-16.2,6.2-16.2,17M113,76.2v-36.9c0-4.8,2.1-6.6,5.5-6.6s5.5,1.8,5.5,6.6v36.9c0,4.8-2.1,6.6-5.5,6.6s-5.5-1.8-5.5-6.6M102.4,40v35.6c0,10.8,5.7,17,16.2,17s16.2-6.2,16.2-17v-35.6c0-10.8-5.7-17-16.2-17s-16.2,6.2-16.2,17M68.1,40v35.6c0,10.8,5.7,17,16.2,17s16.2-6.2,16.2-17v-35.6c0-10.8-5.7-17-16.2-17s-16.2,6.2-16.2,17M84.2,0C78.8,0,74.4,4.4,74.4,9.8s4.4,9.8,9.8,9.8,9.8-4.4,9.8-9.8S89.6,0,84.2,0h0Z"/>
    </clipPath>
    <linearGradient id="Agua_101" data-name="Agua 10" y1="77.4" x2="134.6" y2="77.4" xlink:href="#Agua_10"/>
  </defs>
  <path class="st0" d="M10.5,147h1.1c.9,0,1.3.5,1.3,1.4v.8c0,1.1-.5,1.4-1.5,1.4h-.9v-3.6h0ZM9.9,146.5v8.3h.5v-3.7h.9c.9,0,1.5.3,1.5,1.4v1.3c0,.3,0,.7.2,1h.5c-.1-.3-.2-.7-.2-1v-1.3c.1-.8-.4-1.5-1.2-1.7.8-.2,1.2-.7,1.2-1.7v-.7c0-1.1-.5-1.9-1.7-1.9h-1.7,0ZM20.5,146.5v8.3h3.3v-.5h-2.8v-3.5h2.3v-.5h-2.3v-3.4h2.8v-.5h-3.3ZM31.1,147h1.3c.9,0,1.3.6,1.3,1.5v4.2c0,.9-.4,1.5-1.3,1.5h-1.3v-7.3ZM30.5,146.5v8.3h1.8c1.3,0,1.8-.9,1.8-2.1v-4.2c0-1.2-.5-2.1-1.8-2.1h-1.8ZM52,146.5v7l-2.5-7h-.7v8.3h.5v-7.4l2.6,7.4h.6v-8.3h-.5,0ZM80.8,154.8h.5v-8.3h-.5v8.3ZM101.8,146.5v7l-2.5-7h-.7v8.3h.5v-7.4l2.6,7.4h.6v-8.3h-.5,0ZM120.3,146.5v8.3h3.2v-.5h-2.6v-7.8h-.5ZM61.4,147.1l1.2,5.4h-2.4l1.2-5.4h0ZM61,146.5l-1.8,8.3h.5l.4-1.8h2.6l.4,1.8h.5l-1.9-8.3h-.8,0ZM111.3,147.1l1.2,5.4h-2.4l1.2-5.4ZM110.9,146.5l-1.8,8.3h.5l.4-1.8h2.5l.4,1.8h.5l-1.9-8.3h-.8.1ZM70.4,148.5v4.2c0,1.2.5,2.1,1.8,2.1s1.8-.9,1.8-2.1v-.9h-.5v1c0,.9-.3,1.5-1.3,1.5s-1.3-.7-1.3-1.5v-4.3c0-.9.3-1.5,1.3-1.5s1.3.7,1.3,1.5v.7h.5v-.7c0-1.2-.5-2.1-1.8-2.1s-1.8.9-1.8,2.1M88.7,152.8v-4.3c0-.9.3-1.5,1.3-1.5s1.3.7,1.3,1.5v4.3c0,.9-.3,1.5-1.3,1.5s-1.3-.7-1.3-1.5M88.1,148.5v4.2c0,1.2.5,2.1,1.8,2.1s1.8-.9,1.8-2.1v-4.2c0-1.2-.5-2.1-1.8-2.1s-1.8.9-1.8,2.1M10.7,107.1h.1l2.9,20.1h-5.8l2.8-20.1h0ZM6.6,99.9L0,140.7h6l1.1-8h7.3c0-.1,1.1,8,1.1,8h6.4l-6.6-40.8H6.6ZM42.5,99.9l-4.1,29.2h-.1l-4.1-29.2h-9.1v40.8h5.6v-30.9h.1l4.6,30.9h5.4l4.6-30.9h.1v30.9h6v-40.8h-9.1,0ZM56.3,140.7h6.4v-40.8h-6.4v40.8ZM67.1,109.6v21.4c0,6.5,3.3,10.3,9.5,10.3s9.5-3.8,9.5-10.3v-13.3h-9.3v5.8h3.2v8c0,2.9-1.3,4-3.3,4s-3.3-1.1-3.3-4v-22.3c0-2.9,1.3-4,3.3-4s3.3,1.1,3.3,4v3.9h6v-3.5c0-6.5-3.3-10.3-9.5-10.3s-9.5,3.8-9.5,10.3M96.3,131.5v-22.3c0-2.9,1.3-4,3.3-4s3.3,1.1,3.3,4v22.3c0,2.9-1.3,4-3.3,4s-3.3-1.1-3.3-4M89.8,109.6v21.4c0,6.5,3.4,10.3,9.7,10.3s9.7-3.8,9.7-10.3v-21.4c0-6.5-3.4-10.3-9.7-10.3s-9.7,3.8-9.7,10.3M112.6,109.5c0,4.6,1.7,8,7.1,12.7,4.2,3.7,5.5,5.8,5.5,9.2s-1.3,4.1-3.3,4.1-3.3-1.1-3.3-4v-2.8h-6v2.3c0,6.5,3.2,10.3,9.5,10.3s9.7-3.8,9.7-10.4-1.7-8.3-7-13c-4.2-3.7-5.5-5.8-5.5-8.8s1.1-3.9,3.2-3.9,3.2,1.1,3.2,4v2.1h6v-1.7c0-6.5-3.1-10.3-9.3-10.3s-9.5,3.8-9.5,10.1M2,23.9L0,61.6h10.1v-.6c0-4.8,2.1-6.6,5.5-6.6s5.5,1.8,5.5,6.6v15.2c0,4.8-2.1,6.6-5.5,6.6s-5.5-1.7-5.5-6.6v-6.1H0v5.3c0,10.8,5.4,17,15.8,17s15.8-6.2,15.8-17v-15.3c0-9.9-4-15.4-11.8-15.4s-7.2,1.7-9.2,4.9h-.2l.9-16.2h18.6v-9.7H1.9h0ZM44.4,76.2v-36.9c0-4.8,2.1-6.6,5.5-6.6s5.5,1.8,5.5,6.6v36.9c0,4.8-2.1,6.6-5.5,6.6s-5.5-1.8-5.5-6.6M33.8,40v35.6c0,10.8,5.7,17,16.2,17s16.2-6.2,16.2-17v-35.6c0-10.8-5.7-17-16.2-17s-16.2,6.2-16.2,17M113,76.2v-36.9c0-4.8,2.1-6.6,5.5-6.6s5.5,1.8,5.5,6.6v36.9c0,4.8-2.1,6.6-5.5,6.6s-5.5-1.8-5.5-6.6M102.4,40v35.6c0,10.8,5.7,17,16.2,17s16.2-6.2,16.2-17v-35.6c0-10.8-5.7-17-16.2-17s-16.2,6.2-16.2,17M68.1,40v35.6c0,10.8,5.7,17,16.2,17s16.2-6.2,16.2-17v-35.6c0-10.8-5.7-17-16.2-17s-16.2,6.2-16.2,17M84.2,0C78.8,0,74.4,4.4,74.4,9.8s4.4,9.8,9.8,9.8,9.8-4.4,9.8-9.8S89.6,0,84.2,0h0Z"/>
  <g class="st1">
    <g id="Grupo_10">
      <rect id="Rectángulo_15" class="st2" width="134.6" height="154.9"/>
    </g>
  </g>
</svg>